<svg width="469" height="476" viewBox="0 0 469 476" fill="none" xmlns="http://www.w3.org/2000/svg">
<rect width="469" height="476" fill="#E5E5E5"/>
<ellipse cx="234.5" cy="238" rx="234.5" ry="238" fill="#45A29E"/>
<ellipse cx="234.81" cy="130.571" rx="92.253" ry="94.5709" fill="black"/>
<path d="M379.035 397.238C385.2 375.049 386.209 351.732 381.985 329.088C377.76 306.445 368.416 285.083 354.674 266.654C340.932 248.226 323.162 233.225 302.737 222.813C282.312 212.401 259.78 206.856 236.885 206.607C213.989 206.359 191.344 211.413 170.7 221.379C150.057 231.345 131.968 245.956 117.835 264.082C103.701 282.208 93.9001 303.362 89.1911 325.908C84.482 348.455 84.9907 371.789 90.6778 394.106L235.274 356.799L379.035 397.238Z" fill="black"/>
</svg>
