<svg width="469" height="476" viewBox="0 0 469 476" fill="none" xmlns="http://www.w3.org/2000/svg">
<rect width="469" height="476" fill="#E5E5E5"/>
<ellipse cx="234.5" cy="238" rx="234.5" ry="238" fill="#45A29E"/>
<ellipse cx="234.81" cy="117.571" rx="92.253" ry="94.5709" fill="black"/>
<path d="M379.035 384.238C385.2 362.049 386.209 338.732 381.985 316.088C377.76 293.445 368.416 272.083 354.674 253.654C340.932 235.226 323.162 220.225 302.737 209.813C282.312 199.401 259.78 193.856 236.885 193.607C213.989 193.359 191.344 198.413 170.7 208.379C150.057 218.345 131.968 232.956 117.835 251.082C103.701 269.208 93.9001 290.362 89.1911 312.908C84.482 335.455 84.9907 358.789 90.6778 381.106L235.274 343.799L379.035 384.238Z" fill="black"/>
<path d="M327 131C327 182.494 285.679 224 235 224C184.321 224 143 182.494 143 131C143 79.5057 184.321 38 235 38C285.679 38 327 79.5057 327 131Z" stroke="white" stroke-width="30"/>
<path d="M224.75 212.951L206.534 292.625L160.343 263.265L224.75 212.951Z" fill="white"/>
<path d="M259.5 212L280.718 312.5H238.282L259.5 212Z" fill="white"/>
</svg>
